<svg xmlns="http://www.w3.org/2000/svg" viewBox="0 0 40 46.13"><defs><style>.cls-1{fill:#fff;}</style></defs><g id="katman_2" data-name="katman 2"><g id="katman_1-2" data-name="katman 1"><path class="cls-1" d="M29.26,22.31l-.19.24A11.86,11.86,0,0,1,20,26.91a11.86,11.86,0,0,1-9.07-4.36l-.19-.24A18.36,18.36,0,0,0,0,39v4.75a2.42,2.42,0,0,0,2.42,2.42H37.58A2.43,2.43,0,0,0,40,43.71V39A18.36,18.36,0,0,0,29.26,22.31Z"/><path class="cls-1" d="M20,24.84a9.8,9.8,0,0,0,7.21-3.32,13.47,13.47,0,0,0,3.38-9.1C30.59,5.56,25.85,0,20,0S9.41,5.56,9.41,12.42a13.47,13.47,0,0,0,3.38,9.1A9.8,9.8,0,0,0,20,24.84Z"/></g></g></svg>