<svg xmlns="http://www.w3.org/2000/svg" viewBox="0 0 40 40"><defs><style>.cls-1{fill:#fff;}</style></defs><g id="katman_2" data-name="katman 2"><g id="katman_1-2" data-name="katman 1"><path class="cls-1" d="M10.64,16.84c.24-.09,1.11-.56,1.15-.83L13,3a.73.73,0,0,0-1.44-.2L9.66,16.05a.75.75,0,0,0,.63.83A.82.82,0,0,0,10.64,16.84Z"/><path class="cls-1" d="M28.42,10.34a.74.74,0,0,0,.24-1.23L18.68.19a.73.73,0,1,0-1,1.08L27,10.45C27.21,10.63,28.18,10.43,28.42,10.34Z"/><path class="cls-1" d="M37.69,5.4l-2.38.87L2.74,18.17.37,19c-.38.14-.48.79-.24,1.46s.75,1.1,1.13,1l1.06-.39,12,18a1.61,1.61,0,0,0,2,.87l22.61-8.26a1.63,1.63,0,0,0,1-2L37.51,8.22l1.06-.39c.38-.14.49-.79.24-1.46S38.06,5.26,37.69,5.4ZM7.49,19.62l2.12-.77,3.74,7.82-1.95.71Zm8.16,16.21-3.23-6.4,1.93-.7,3.09,6.45ZM13.24,17.52l2.13-.77,3.31,8-2,.72ZM20.5,34.06l-2.87-6.53,1.92-.71,2.74,6.58Zm6.64-2.43-1.79.66-2.51-6.67,1.92-.7ZM24,22.77l-2,.72-3-8.07,2.12-.78Zm8,7.09-1.79.65L28,23.72,30,23Zm-2.67-9-2,.72-2.61-8.23,2.12-.78Zm7.52,7.26-1.79.65-1.8-6.92,1.92-.71Zm-2.2-9.2-2,.71L30.5,11.22l2.12-.78Z"/></g></g></svg>